<?xml version="1.0" encoding="UTF-8" standalone="no"?>
<!-- Created with Inkscape (http://www.inkscape.org/) -->

<svg
   width="210mm"
   height="297mm"
   viewBox="0 0 210 297"
   version="1.1"
   id="svg1"
   xml:space="preserve"
   inkscape:version="1.3.2 (1:1.3.2+202311252150+091e20ef0f)"
   sodipodi:docname="logo_2.svg"
   xmlns:inkscape="http://www.inkscape.org/namespaces/inkscape"
   xmlns:sodipodi="http://sodipodi.sourceforge.net/DTD/sodipodi-0.dtd"
   xmlns:xlink="http://www.w3.org/1999/xlink"
   xmlns="http://www.w3.org/2000/svg"
   xmlns:svg="http://www.w3.org/2000/svg"><sodipodi:namedview
     id="namedview1"
     pagecolor="#505050"
     bordercolor="#eeeeee"
     borderopacity="1"
     inkscape:showpageshadow="0"
     inkscape:pageopacity="0"
     inkscape:pagecheckerboard="0"
     inkscape:deskcolor="#505050"
     inkscape:document-units="mm"
     showgrid="false"
     inkscape:zoom="0.46502525"
     inkscape:cx="397.82786"
     inkscape:cy="561.25984"
     inkscape:window-width="1024"
     inkscape:window-height="544"
     inkscape:window-x="187"
     inkscape:window-y="246"
     inkscape:window-maximized="0"
     inkscape:current-layer="layer1" /><defs
     id="defs1"><inkscape:perspective
       sodipodi:type="inkscape:persp3d"
       inkscape:vp_x="0 : 148.5 : 1"
       inkscape:vp_y="0 : 1000 : 0"
       inkscape:vp_z="210 : 148.5 : 1"
       inkscape:persp3d-origin="105 : 99 : 1"
       id="perspective31" /><linearGradient
       id="linearGradient30"
       inkscape:collect="always"><stop
         style="stop-color:#418d43;stop-opacity:0.36475313;"
         offset="0"
         id="stop30" /><stop
         style="stop-color:#d08d43;stop-opacity:0;"
         offset="1"
         id="stop31" /></linearGradient><linearGradient
       id="swatch26"><stop
         style="stop-color:#280b0b;stop-opacity:1;"
         offset="0"
         id="stop26" /></linearGradient><linearGradient
       id="linearGradient21"
       inkscape:collect="always"><stop
         style="stop-color:#ffff73;stop-opacity:1;"
         offset="0"
         id="stop21" /><stop
         style="stop-color:#24b9cf;stop-opacity:0;"
         offset="1"
         id="stop22" /></linearGradient><linearGradient
       id="linearGradient17"
       inkscape:collect="always"><stop
         style="stop-color:#1e265b;stop-opacity:1;"
         offset="0"
         id="stop18" /><stop
         style="stop-color:#26ec15;stop-opacity:0.92415202;"
         offset="1"
         id="stop19" /></linearGradient><clipPath
       clipPathUnits="userSpaceOnUse"
       id="clipPath25"><rect
         style="fill:#ff0000;stroke:none;stroke-width:3;stroke-linecap:square;stroke-linejoin:miter;paint-order:stroke markers fill;stop-color:#000000"
         id="rect25-8"
         width="78"
         height="45.033199"
         x="763.61322"
         y="452.82422" /></clipPath><pattern
       inkscape:collect="always"
       xlink:href="#hollow Circle"
       preserveAspectRatio="xMidYMid"
       id="pattern9"
       patternTransform="translate(-15,-15)"
       x="0"
       y="0" /><pattern
       patternUnits="userSpaceOnUse"
       width="30"
       height="30"
       patternTransform="translate(-15,-15)"
       preserveAspectRatio="xMidYMid"
       id="hollow Circle"
       style="fill:#000000"
       x="0"
       y="0"
       inkscape:label="Hollow circle"
       inkscape:collect="always"
       inkscape:isstock="true"><path
         style="color:#000000;stroke-linecap:square;-inkscape-stroke:none;paint-order:markers fill stroke"
         d="M 15,0 C 6.7749602,0 0,6.7749602 0,15 0,23.22504 6.7749602,30 15,30 23.22504,30 30,23.22504 30,15 30,6.7749602 23.22504,0 15,0 Z m 0,10 c 2.820644,0 5,2.179356 5,5 0,2.820644 -2.179356,5 -5,5 -2.820644,0 -5,-2.179356 -5,-5 0,-2.820644 2.179356,-5 5,-5 z"
         id="path12" /></pattern><clipPath
       clipPathUnits="userSpaceOnUse"
       id="clipPath5"><rect
         style="fill:#000000;stroke:#000000;stroke-width:0;stroke-linejoin:bevel;paint-order:stroke markers fill;stop-color:#000000"
         id="rect5-4"
         width="20"
         height="200"
         x="530"
         y="595" /></clipPath><linearGradient
       id="swatch37"
       inkscape:swatch="solid"><stop
         style="stop-color:#61dafb;stop-opacity:1;"
         offset="0"
         id="stop37" /></linearGradient><clipPath
       clipPathUnits="userSpaceOnUse"
       id="clipPath52"><path
         id="path52"
         style="stroke-width:0.1;stroke-linecap:square;paint-order:markers fill stroke;stop-color:#000000"
         d="m -880.82767,-187.29769 h 1640.84 v 73.28155 h -1640.84 z" /></clipPath><radialGradient
       inkscape:collect="always"
       xlink:href="#linearGradient17"
       id="radialGradient19"
       cx="421"
       cy="296.45001"
       fx="421"
       fy="296.45001"
       r="245.3"
       gradientTransform="matrix(0.99989747,0.0143195,-0.01898034,1.3253531,5.6698856,-102.47944)"
       gradientUnits="userSpaceOnUse" /><linearGradient
       inkscape:collect="always"
       xlink:href="#linearGradient21"
       id="linearGradient22"
       x1="375.19999"
       y1="296.5"
       x2="466.59999"
       y2="296.5"
       gradientUnits="userSpaceOnUse" /><linearGradient
       inkscape:collect="always"
       xlink:href="#linearGradient30"
       id="linearGradient31"
       x1="23.793728"
       y1="144.4807"
       x2="183.65777"
       y2="144.4807"
       gradientUnits="userSpaceOnUse" /></defs><g
     inkscape:label="Layer 1"
     inkscape:groupmode="layer"
     id="layer1"><g
       fill="#61dafb"
       id="g2"
       transform="matrix(0.26458333,0,0,0.26458333,-6.1309612,70.064272)"
       style="fill:url(#pattern9);fill-opacity:1;fill-rule:nonzero;image-rendering:optimizeQuality"><path
         d="m 666.3,296.5 c 0,-32.5 -40.7,-63.3 -103.1,-82.4 14.4,-63.6 8,-114.2 -20.2,-130.4 -6.5,-3.8 -14.1,-5.6 -22.4,-5.6 v 22.3 c 4.6,0 8.3,0.9 11.4,2.6 13.6,7.8 19.5,37.5 14.9,75.7 -1.1,9.4 -2.9,19.3 -5.1,29.4 -19.6,-4.8 -41,-8.5 -63.5,-10.9 -13.5,-18.5 -27.5,-35.3 -41.6,-50 32.6,-30.3 63.2,-46.9 84,-46.9 V 78 C 493.2,78 457.2,97.6 420.8,131.6 384.4,97.8 348.4,78.4 320.9,78.4 v 22.3 c 20.7,0 51.4,16.5 84,46.6 -14,14.7 -28,31.4 -41.3,49.9 -22.6,2.4 -44,6.1 -63.6,11 -2.3,-10 -4,-19.7 -5.2,-29 -4.7,-38.2 1.1,-67.9 14.6,-75.8 3,-1.8 6.9,-2.6 11.5,-2.6 V 78.5 c -8.4,0 -16,1.8 -22.6,5.6 -28.1,16.2 -34.4,66.7 -19.9,130.1 -62.2,19.2 -102.7,49.9 -102.7,82.3 0,32.5 40.7,63.3 103.1,82.4 -14.4,63.6 -8,114.2 20.2,130.4 6.5,3.8 14.1,5.6 22.5,5.6 27.5,0 63.5,-19.6 99.9,-53.6 36.4,33.8 72.4,53.2 99.9,53.2 8.4,0 16,-1.8 22.6,-5.6 28.1,-16.2 34.4,-66.7 19.9,-130.1 62,-19.1 102.5,-49.9 102.5,-82.3 z M 536.1,229.8 c -3.7,12.9 -8.3,26.2 -13.5,39.5 -4.1,-8 -8.4,-16 -13.1,-24 -4.6,-8 -9.5,-15.8 -14.4,-23.4 14.2,2.1 27.9,4.7 41,7.9 z m -45.8,106.5 c -7.8,13.5 -15.8,26.3 -24.1,38.2 -14.9,1.3 -30,2 -45.2,2 -15.1,0 -30.2,-0.7 -45,-1.9 -8.3,-11.9 -16.4,-24.6 -24.2,-38 -7.6,-13.1 -14.5,-26.4 -20.8,-39.8 6.2,-13.4 13.2,-26.8 20.7,-39.9 7.8,-13.5 15.8,-26.3 24.1,-38.2 14.9,-1.3 30,-2 45.2,-2 15.1,0 30.2,0.7 45,1.9 8.3,11.9 16.4,24.6 24.2,38 7.6,13.1 14.5,26.4 20.8,39.8 -6.3,13.4 -13.2,26.8 -20.7,39.9 z m 32.3,-13 c 5.4,13.4 10,26.8 13.8,39.8 -13.1,3.2 -26.9,5.9 -41.2,8 4.9,-7.7 9.8,-15.6 14.4,-23.7 4.6,-8 8.9,-16.1 13,-24.1 z M 421.2,430 c -9.3,-9.6 -18.6,-20.3 -27.8,-32 9,0.4 18.2,0.7 27.5,0.7 9.4,0 18.7,-0.2 27.8,-0.7 -9,11.7 -18.3,22.4 -27.5,32 z m -74.4,-58.9 c -14.2,-2.1 -27.9,-4.7 -41,-7.9 3.7,-12.9 8.3,-26.2 13.5,-39.5 4.1,8 8.4,16 13.1,24 4.7,8 9.5,15.8 14.4,23.4 z M 420.7,163 c 9.3,9.6 18.6,20.3 27.8,32 -9,-0.4 -18.2,-0.7 -27.5,-0.7 -9.4,0 -18.7,0.2 -27.8,0.7 9,-11.7 18.3,-22.4 27.5,-32 z m -74,58.9 c -4.9,7.7 -9.8,15.6 -14.4,23.7 -4.6,8 -8.9,16 -13,24 -5.4,-13.4 -10,-26.8 -13.8,-39.8 13.1,-3.1 26.9,-5.8 41.2,-7.9 z m -90.5,125.2 c -35.4,-15.1 -58.3,-34.9 -58.3,-50.6 0,-15.7 22.9,-35.6 58.3,-50.6 8.6,-3.7 18,-7 27.7,-10.1 5.7,19.6 13.2,40 22.5,60.9 -9.2,20.8 -16.6,41.1 -22.2,60.6 -9.9,-3.1 -19.3,-6.5 -28,-10.2 z M 310,490 c -13.6,-7.8 -19.5,-37.5 -14.9,-75.7 1.1,-9.4 2.9,-19.3 5.1,-29.4 19.6,4.8 41,8.5 63.5,10.9 13.5,18.5 27.5,35.3 41.6,50 -32.6,30.3 -63.2,46.9 -84,46.9 -4.5,-0.1 -8.3,-1 -11.3,-2.7 z m 237.2,-76.2 c 4.7,38.2 -1.1,67.9 -14.6,75.8 -3,1.8 -6.9,2.6 -11.5,2.6 -20.7,0 -51.4,-16.5 -84,-46.6 14,-14.7 28,-31.4 41.3,-49.9 22.6,-2.4 44,-6.1 63.6,-11 2.3,10.1 4.1,19.8 5.2,29.1 z m 38.5,-66.7 c -8.6,3.7 -18,7 -27.7,10.1 -5.7,-19.6 -13.2,-40 -22.5,-60.9 9.2,-20.8 16.6,-41.1 22.2,-60.6 9.9,3.1 19.3,6.5 28.1,10.2 35.4,15.1 58.3,34.9 58.3,50.6 -0.1,15.7 -23,35.6 -58.4,50.6 z M 320.8,78.4 Z"
         id="path1"
         style="mix-blend-mode:darken;fill:url(#radialGradient19);fill-rule:nonzero;opacity:1" /><ellipse
         cx="420.89999"
         cy="296.5"
         id="circle1"
         style="fill:url(#linearGradient22);fill-rule:nonzero"
         rx="45.700001"
         ry="68.589272" /><path
         d="M 520.5,78.1 Z"
         id="path2"
         style="fill:url(#pattern9);fill-opacity:1;fill-rule:nonzero" /></g><path
       sodipodi:type="spiral"
       style="fill:url(#linearGradient31);fill-rule:evenodd;stroke:#000000;stroke-width:0.264583;fill-opacity:1"
       id="path23"
       sodipodi:cx="96.269615"
       sodipodi:cy="151.76651"
       sodipodi:expansion="1"
       sodipodi:revolution="3"
       sodipodi:radius="87.95533"
       sodipodi:argument="-18.676371"
       sodipodi:t0="0.033711761"
       d="m 98.316992,153.91133 c 1.013939,5.10462 -6.120912,6.32286 -9.494043,4.96354 -7.816538,-3.14994 -8.670713,-13.41485 -4.722683,-19.85688 6.38268,-10.41466 20.887374,-11.19767 30.219714,-4.48182 13.08153,9.41389 13.77695,28.42395 4.24096,40.58256 -12.37874,15.78317 -35.986659,16.38091 -50.945392,4.00009 -18.503141,-15.31441 -18.998337,-43.56287 -3.759227,-61.30823 18.234811,-21.233735 51.147039,-21.623834 71.671059,-3.51836 23.97099,21.14626 24.25455,58.73634 3.2775,82.0339 -24.052,26.71267 -66.329134,26.88879 -92.396732,3.03663 C 16.950701,172.40885 16.882577,125.43834 43.612377,96.603193 73.465488,64.398734 125.13394,64.438995 156.73478,94.048285 c 19.76478,18.519165 29.41368,46.052055 26.17443,72.874765" /></g></svg>
